<svg width="497" height="92" viewBox="0 0 497 92" fill="none" xmlns="http://www.w3.org/2000/svg">
<path d="M99.984 2.656H84.112L53.52 77.408L19.216 2.656H1.424V5.088C3.984 5.088 5.776 6.112 7.696 8.544C6.928 33.504 6.16 58.592 5.392 83.552C5.264 87.52 3.472 89.568 0.656 89.568V92H14.096V89.568C11.408 89.568 9.744 88.032 9.488 84.576L10.64 14.304C23.184 40.16 35.728 66.016 48.144 91.872H51.088L84.752 12C85.392 35.808 86.16 59.744 86.8 83.552C86.928 87.52 85.264 89.568 82.448 89.568V92H103.568V89.568C100.752 89.568 98.96 87.52 98.832 83.552L96.4 10.208C96.528 6.62399 98.064 4.96 100.752 4.96L99.984 2.656ZM131.647 76.896L139.199 56.928H175.935C178.367 63.584 180.927 70.368 183.359 76.896C185.919 83.808 184.511 88.8 179.903 88.8H178.495V91.744H206.271V88.8H205.375C202.559 88.8 198.463 83.808 195.903 76.896L168.383 6.112C168.383 6.112 166.847 0.223999 166.079 0.223999H164.927C165.439 2.91199 161.855 5.34399 156.479 6.112L156.991 7.26399L130.879 76.768C128.319 83.68 122.687 88.672 117.439 88.672H115.775V91.616H136.639V88.672H135.231C130.623 88.672 129.087 83.68 131.647 76.768V76.896ZM139.327 55.904L157.119 8.032L175.295 55.904H139.327ZM240.27 2.656H219.15V5.088C221.966 5.088 223.758 7.13599 223.758 11.104V83.552C223.758 87.52 221.966 89.568 219.15 89.568V92H288.782V90.464C289.422 87.52 290.19 83.552 290.83 80.736H288.782L288.014 82.144C285.454 86.752 278.414 90.08 271.118 90.08H245.262C236.942 90.08 235.79 87.008 235.79 82.656V11.36C235.79 7.392 237.582 5.34399 240.398 5.34399L240.27 2.656ZM319.397 76.896L326.949 56.928H363.685C366.117 63.584 368.677 70.368 371.109 76.896C373.669 83.808 372.261 88.8 367.653 88.8H366.245V91.744H394.021V88.8H393.125C390.309 88.8 386.213 83.808 383.653 76.896L356.133 6.112C356.133 6.112 354.597 0.223999 353.829 0.223999H352.677C353.189 2.91199 349.605 5.34399 344.229 6.112L344.741 7.26399L318.629 76.768C316.069 83.68 310.437 88.672 305.189 88.672H303.525V91.616H324.389V88.672H322.981C318.373 88.672 316.837 83.68 319.397 76.768V76.896ZM327.077 55.904L344.869 8.032L363.045 55.904H327.077ZM406.9 2.784V5.088C409.844 5.088 412.788 6.88 416.116 10.336L418.42 12.768L418.292 83.552C418.292 87.52 416.5 89.568 413.684 89.568V92H426.484V89.568C423.668 89.568 421.876 87.52 421.876 83.552L421.492 16.224C443.764 41.44 466.036 66.656 488.308 91.872H490.74L491.508 10.208C491.892 6.752 493.556 5.088 496.244 5.088V2.656H483.444V5.088C486.26 5.088 488.052 7.13599 488.052 11.104L488.18 73.824C466.932 50.144 445.684 26.464 424.436 2.784H406.9Z" fill="black"/>
</svg>
